<svg width="64" height="64" viewBox="0 0 64 64" fill="none" xmlns="http://www.w3.org/2000/svg">
<path d="M0 12C0 5.37258 5.37258 0 12 0H52C58.6274 0 64 5.37258 64 12V52C64 58.6274 58.6274 64 52 64H12C5.37258 64 0 58.6274 0 52V12Z" fill="#EBF5FF"/>
<path d="M31.9985 20C35.1129 22.7554 39.1778 24.1901 43.3318 24C43.9366 26.0574 44.1217 28.2153 43.876 30.3456C43.6303 32.4759 42.9589 34.535 41.9017 36.4007C40.8445 38.2664 39.423 39.9005 37.7218 41.206C36.0205 42.5114 34.0742 43.4616 31.9985 44C29.9228 43.4616 27.9765 42.5114 26.2752 41.206C24.574 39.9005 23.1525 38.2664 22.0953 36.4007C21.0381 34.535 20.3667 32.4759 20.121 30.3456C19.8753 28.2153 20.0604 26.0574 20.6651 24C24.8192 24.1901 28.884 22.7554 31.9985 20Z" stroke="#111827" stroke-width="2" stroke-linecap="round" stroke-linejoin="round"/>
<path d="M32 20V44" stroke="#111827" stroke-width="2" stroke-linecap="round" stroke-linejoin="round"/>
</svg>
