<svg width="1400" height="740" viewBox="0 0 1400 740" fill="none" xmlns="http://www.w3.org/2000/svg">
<circle cx="25" cy="39" r="1" fill="#D9D9D9"/>
<circle cx="75" cy="39" r="1" fill="#D9D9D9"/>
<circle cx="125" cy="39" r="1" fill="#D9D9D9"/>
<circle cx="175" cy="39" r="1" fill="#D9D9D9"/>
<circle cx="225" cy="39" r="1" fill="#D9D9D9"/>
<circle cx="275" cy="39" r="1" fill="#D9D9D9"/>
<circle cx="325" cy="39" r="1" fill="#D9D9D9"/>
<circle cx="375" cy="39" r="1" fill="#D9D9D9"/>
<circle cx="425" cy="39" r="1" fill="#D9D9D9"/>
<circle cx="475" cy="39" r="1" fill="#D9D9D9"/>
<circle cx="525" cy="39" r="1" fill="#D9D9D9"/>
<circle cx="575" cy="39" r="1" fill="#D9D9D9"/>
<circle cx="625" cy="39" r="1" fill="#D9D9D9"/>
<circle cx="675" cy="39" r="1" fill="#D9D9D9"/>
<circle cx="725" cy="39" r="1" fill="#D9D9D9"/>
<circle cx="775" cy="39" r="1" fill="#D9D9D9"/>
<circle cx="825" cy="39" r="1" fill="#D9D9D9"/>
<circle cx="875" cy="39" r="1" fill="#D9D9D9"/>
<circle cx="925" cy="39" r="1" fill="#D9D9D9"/>
<circle cx="975" cy="39" r="1" fill="#D9D9D9"/>
<circle cx="1025" cy="39" r="1" fill="#D9D9D9"/>
<circle cx="1075" cy="39" r="1" fill="#D9D9D9"/>
<circle cx="1125" cy="39" r="1" fill="#D9D9D9"/>
<circle cx="1175" cy="39" r="1" fill="#D9D9D9"/>
<circle cx="1225" cy="39" r="1" fill="#D9D9D9"/>
<circle cx="1275" cy="39" r="1" fill="#D9D9D9"/>
<circle cx="1325" cy="39" r="1" fill="#D9D9D9"/>
<circle cx="1375" cy="39" r="1" fill="#D9D9D9"/>
<circle cx="25" cy="89" r="1" fill="#D9D9D9"/>
<circle cx="75" cy="89" r="1" fill="#D9D9D9"/>
<circle cx="125" cy="89" r="1" fill="#D9D9D9"/>
<circle cx="175" cy="89" r="1" fill="#D9D9D9"/>
<circle cx="225" cy="89" r="1" fill="#D9D9D9"/>
<circle cx="275" cy="89" r="1" fill="#D9D9D9"/>
<circle cx="325" cy="89" r="1" fill="#D9D9D9"/>
<circle cx="375" cy="89" r="1" fill="#D9D9D9"/>
<circle cx="425" cy="89" r="1" fill="#D9D9D9"/>
<circle cx="475" cy="89" r="1" fill="#D9D9D9"/>
<circle cx="525" cy="89" r="1" fill="#D9D9D9"/>
<circle cx="575" cy="89" r="1" fill="#D9D9D9"/>
<circle cx="625" cy="89" r="1" fill="#D9D9D9"/>
<circle cx="675" cy="89" r="1" fill="#D9D9D9"/>
<circle cx="725" cy="89" r="1" fill="#D9D9D9"/>
<circle cx="775" cy="89" r="1" fill="#D9D9D9"/>
<circle cx="825" cy="89" r="1" fill="#D9D9D9"/>
<circle cx="875" cy="89" r="1" fill="#D9D9D9"/>
<circle cx="925" cy="89" r="1" fill="#D9D9D9"/>
<circle cx="975" cy="89" r="1" fill="#D9D9D9"/>
<circle cx="1025" cy="89" r="1" fill="#D9D9D9"/>
<circle cx="1075" cy="89" r="1" fill="#D9D9D9"/>
<circle cx="1125" cy="89" r="1" fill="#D9D9D9"/>
<circle cx="1175" cy="89" r="1" fill="#D9D9D9"/>
<circle cx="1225" cy="89" r="1" fill="#D9D9D9"/>
<circle cx="1275" cy="89" r="1" fill="#D9D9D9"/>
<circle cx="1325" cy="89" r="1" fill="#D9D9D9"/>
<circle cx="1375" cy="89" r="1" fill="#D9D9D9"/>
<circle cx="25" cy="139" r="1" fill="#D9D9D9"/>
<circle cx="75" cy="139" r="1" fill="#D9D9D9"/>
<circle cx="125" cy="139" r="1" fill="#D9D9D9"/>
<circle cx="175" cy="139" r="1" fill="#D9D9D9"/>
<circle cx="225" cy="139" r="1" fill="#D9D9D9"/>
<circle cx="275" cy="139" r="1" fill="#D9D9D9"/>
<circle cx="325" cy="139" r="1" fill="#D9D9D9"/>
<circle cx="375" cy="139" r="1" fill="#D9D9D9"/>
<circle cx="425" cy="139" r="1" fill="#D9D9D9"/>
<circle cx="475" cy="139" r="1" fill="#D9D9D9"/>
<circle cx="525" cy="139" r="1" fill="#D9D9D9"/>
<circle cx="575" cy="139" r="1" fill="#D9D9D9"/>
<circle cx="625" cy="139" r="1" fill="#D9D9D9"/>
<circle cx="675" cy="139" r="1" fill="#D9D9D9"/>
<circle cx="725" cy="139" r="1" fill="#D9D9D9"/>
<circle cx="775" cy="139" r="1" fill="#D9D9D9"/>
<circle cx="825" cy="139" r="1" fill="#D9D9D9"/>
<circle cx="875" cy="139" r="1" fill="#D9D9D9"/>
<circle cx="925" cy="139" r="1" fill="#D9D9D9"/>
<circle cx="975" cy="139" r="1" fill="#D9D9D9"/>
<circle cx="1025" cy="139" r="1" fill="#D9D9D9"/>
<circle cx="1075" cy="139" r="1" fill="#D9D9D9"/>
<circle cx="1125" cy="139" r="1" fill="#D9D9D9"/>
<circle cx="1175" cy="139" r="1" fill="#D9D9D9"/>
<circle cx="1225" cy="139" r="1" fill="#D9D9D9"/>
<circle cx="1275" cy="139" r="1" fill="#D9D9D9"/>
<circle cx="1325" cy="139" r="1" fill="#D9D9D9"/>
<circle cx="1375" cy="139" r="1" fill="#D9D9D9"/>
<circle cx="25" cy="189" r="1" fill="#D9D9D9"/>
<circle cx="75" cy="189" r="1" fill="#D9D9D9"/>
<circle cx="125" cy="189" r="1" fill="#D9D9D9"/>
<circle cx="175" cy="189" r="1" fill="#D9D9D9"/>
<circle cx="225" cy="189" r="1" fill="#D9D9D9"/>
<circle cx="275" cy="189" r="1" fill="#D9D9D9"/>
<circle cx="325" cy="189" r="1" fill="#D9D9D9"/>
<circle cx="375" cy="189" r="1" fill="#D9D9D9"/>
<circle cx="425" cy="189" r="1" fill="#D9D9D9"/>
<circle cx="475" cy="189" r="1" fill="#D9D9D9"/>
<circle cx="525" cy="189" r="1" fill="#D9D9D9"/>
<circle cx="575" cy="189" r="1" fill="#D9D9D9"/>
<circle cx="625" cy="189" r="1" fill="#D9D9D9"/>
<circle cx="675" cy="189" r="1" fill="#D9D9D9"/>
<circle cx="725" cy="189" r="1" fill="#D9D9D9"/>
<circle cx="775" cy="189" r="1" fill="#D9D9D9"/>
<circle cx="825" cy="189" r="1" fill="#D9D9D9"/>
<circle cx="875" cy="189" r="1" fill="#D9D9D9"/>
<circle cx="925" cy="189" r="1" fill="#D9D9D9"/>
<circle cx="975" cy="189" r="1" fill="#D9D9D9"/>
<circle cx="1025" cy="189" r="1" fill="#D9D9D9"/>
<circle cx="1075" cy="189" r="1" fill="#D9D9D9"/>
<circle cx="1125" cy="189" r="1" fill="#D9D9D9"/>
<circle cx="1175" cy="189" r="1" fill="#D9D9D9"/>
<circle cx="1225" cy="189" r="1" fill="#D9D9D9"/>
<circle cx="1275" cy="189" r="1" fill="#D9D9D9"/>
<circle cx="1325" cy="189" r="1" fill="#D9D9D9"/>
<circle cx="1375" cy="189" r="1" fill="#D9D9D9"/>
<circle cx="25" cy="239" r="1" fill="#D9D9D9"/>
<circle cx="75" cy="239" r="1" fill="#D9D9D9"/>
<circle cx="125" cy="239" r="1" fill="#D9D9D9"/>
<circle cx="175" cy="239" r="1" fill="#D9D9D9"/>
<circle cx="225" cy="239" r="1" fill="#D9D9D9"/>
<circle cx="275" cy="239" r="1" fill="#D9D9D9"/>
<circle cx="325" cy="239" r="1" fill="#D9D9D9"/>
<circle cx="375" cy="239" r="1" fill="#D9D9D9"/>
<circle cx="425" cy="239" r="1" fill="#D9D9D9"/>
<circle cx="475" cy="239" r="1" fill="#D9D9D9"/>
<circle cx="525" cy="239" r="1" fill="#D9D9D9"/>
<circle cx="575" cy="239" r="1" fill="#D9D9D9"/>
<circle cx="625" cy="239" r="1" fill="#D9D9D9"/>
<circle cx="675" cy="239" r="1" fill="#D9D9D9"/>
<circle cx="725" cy="239" r="1" fill="#D9D9D9"/>
<circle cx="775" cy="239" r="1" fill="#D9D9D9"/>
<circle cx="825" cy="239" r="1" fill="#D9D9D9"/>
<circle cx="875" cy="239" r="1" fill="#D9D9D9"/>
<circle cx="925" cy="239" r="1" fill="#D9D9D9"/>
<circle cx="975" cy="239" r="1" fill="#D9D9D9"/>
<circle cx="1025" cy="239" r="1" fill="#D9D9D9"/>
<circle cx="1075" cy="239" r="1" fill="#D9D9D9"/>
<circle cx="1125" cy="239" r="1" fill="#D9D9D9"/>
<circle cx="1175" cy="239" r="1" fill="#D9D9D9"/>
<circle cx="1225" cy="239" r="1" fill="#D9D9D9"/>
<circle cx="1275" cy="239" r="1" fill="#D9D9D9"/>
<circle cx="1325" cy="239" r="1" fill="#D9D9D9"/>
<circle cx="1375" cy="239" r="1" fill="#D9D9D9"/>
<circle cx="25" cy="289" r="1" fill="#D9D9D9"/>
<circle cx="75" cy="289" r="1" fill="#D9D9D9"/>
<circle cx="125" cy="289" r="1" fill="#D9D9D9"/>
<circle cx="175" cy="289" r="1" fill="#D9D9D9"/>
<circle cx="225" cy="289" r="1" fill="#D9D9D9"/>
<circle cx="275" cy="289" r="1" fill="#D9D9D9"/>
<circle cx="325" cy="289" r="1" fill="#D9D9D9"/>
<circle cx="375" cy="289" r="1" fill="#D9D9D9"/>
<circle cx="425" cy="289" r="1" fill="#D9D9D9"/>
<circle cx="475" cy="289" r="1" fill="#D9D9D9"/>
<circle cx="525" cy="289" r="1" fill="#D9D9D9"/>
<circle cx="575" cy="289" r="1" fill="#D9D9D9"/>
<circle cx="625" cy="289" r="1" fill="#D9D9D9"/>
<circle cx="675" cy="289" r="1" fill="#D9D9D9"/>
<circle cx="725" cy="289" r="1" fill="#D9D9D9"/>
<circle cx="775" cy="289" r="1" fill="#D9D9D9"/>
<circle cx="825" cy="289" r="1" fill="#D9D9D9"/>
<circle cx="875" cy="289" r="1" fill="#D9D9D9"/>
<circle cx="925" cy="289" r="1" fill="#D9D9D9"/>
<circle cx="975" cy="289" r="1" fill="#D9D9D9"/>
<circle cx="1025" cy="289" r="1" fill="#D9D9D9"/>
<circle cx="1075" cy="289" r="1" fill="#D9D9D9"/>
<circle cx="1125" cy="289" r="1" fill="#D9D9D9"/>
<circle cx="1175" cy="289" r="1" fill="#D9D9D9"/>
<circle cx="1225" cy="289" r="1" fill="#D9D9D9"/>
<circle cx="1275" cy="289" r="1" fill="#D9D9D9"/>
<circle cx="1325" cy="289" r="1" fill="#D9D9D9"/>
<circle cx="1375" cy="289" r="1" fill="#D9D9D9"/>
<circle cx="25" cy="339" r="1" fill="#D9D9D9"/>
<circle cx="75" cy="339" r="1" fill="#D9D9D9"/>
<circle cx="125" cy="339" r="1" fill="#D9D9D9"/>
<circle cx="175" cy="339" r="1" fill="#D9D9D9"/>
<circle cx="225" cy="339" r="1" fill="#D9D9D9"/>
<circle cx="275" cy="339" r="1" fill="#D9D9D9"/>
<circle cx="325" cy="339" r="1" fill="#D9D9D9"/>
<circle cx="375" cy="339" r="1" fill="#D9D9D9"/>
<circle cx="425" cy="339" r="1" fill="#D9D9D9"/>
<circle cx="475" cy="339" r="1" fill="#D9D9D9"/>
<circle cx="525" cy="339" r="1" fill="#D9D9D9"/>
<circle cx="575" cy="339" r="1" fill="#D9D9D9"/>
<circle cx="625" cy="339" r="1" fill="#D9D9D9"/>
<circle cx="675" cy="339" r="1" fill="#D9D9D9"/>
<circle cx="725" cy="339" r="1" fill="#D9D9D9"/>
<circle cx="775" cy="339" r="1" fill="#D9D9D9"/>
<circle cx="825" cy="339" r="1" fill="#D9D9D9"/>
<circle cx="875" cy="339" r="1" fill="#D9D9D9"/>
<circle cx="925" cy="339" r="1" fill="#D9D9D9"/>
<circle cx="975" cy="339" r="1" fill="#D9D9D9"/>
<circle cx="1025" cy="339" r="1" fill="#D9D9D9"/>
<circle cx="1075" cy="339" r="1" fill="#D9D9D9"/>
<circle cx="1125" cy="339" r="1" fill="#D9D9D9"/>
<circle cx="1175" cy="339" r="1" fill="#D9D9D9"/>
<circle cx="1225" cy="339" r="1" fill="#D9D9D9"/>
<circle cx="1275" cy="339" r="1" fill="#D9D9D9"/>
<circle cx="1325" cy="339" r="1" fill="#D9D9D9"/>
<circle cx="1375" cy="339" r="1" fill="#D9D9D9"/>
<circle cx="25" cy="389" r="1" fill="#D9D9D9"/>
<circle cx="75" cy="389" r="1" fill="#D9D9D9"/>
<circle cx="125" cy="389" r="1" fill="#D9D9D9"/>
<circle cx="175" cy="389" r="1" fill="#D9D9D9"/>
<circle cx="225" cy="389" r="1" fill="#D9D9D9"/>
<circle cx="275" cy="389" r="1" fill="#D9D9D9"/>
<circle cx="325" cy="389" r="1" fill="#D9D9D9"/>
<circle cx="375" cy="389" r="1" fill="#D9D9D9"/>
<circle cx="425" cy="389" r="1" fill="#D9D9D9"/>
<circle cx="475" cy="389" r="1" fill="#D9D9D9"/>
<circle cx="525" cy="389" r="1" fill="#D9D9D9"/>
<circle cx="575" cy="389" r="1" fill="#D9D9D9"/>
<circle cx="625" cy="389" r="1" fill="#D9D9D9"/>
<circle cx="675" cy="389" r="1" fill="#D9D9D9"/>
<circle cx="725" cy="389" r="1" fill="#D9D9D9"/>
<circle cx="775" cy="389" r="1" fill="#D9D9D9"/>
<circle cx="825" cy="389" r="1" fill="#D9D9D9"/>
<circle cx="875" cy="389" r="1" fill="#D9D9D9"/>
<circle cx="925" cy="389" r="1" fill="#D9D9D9"/>
<circle cx="975" cy="389" r="1" fill="#D9D9D9"/>
<circle cx="1025" cy="389" r="1" fill="#D9D9D9"/>
<circle cx="1075" cy="389" r="1" fill="#D9D9D9"/>
<circle cx="1125" cy="389" r="1" fill="#D9D9D9"/>
<circle cx="1175" cy="389" r="1" fill="#D9D9D9"/>
<circle cx="1225" cy="389" r="1" fill="#D9D9D9"/>
<circle cx="1275" cy="389" r="1" fill="#D9D9D9"/>
<circle cx="1325" cy="389" r="1" fill="#D9D9D9"/>
<circle cx="1375" cy="389" r="1" fill="#D9D9D9"/>
<circle cx="25" cy="439" r="1" fill="#D9D9D9"/>
<circle cx="75" cy="439" r="1" fill="#D9D9D9"/>
<circle cx="125" cy="439" r="1" fill="#D9D9D9"/>
<circle cx="175" cy="439" r="1" fill="#D9D9D9"/>
<circle cx="225" cy="439" r="1" fill="#D9D9D9"/>
<circle cx="275" cy="439" r="1" fill="#D9D9D9"/>
<circle cx="325" cy="439" r="1" fill="#D9D9D9"/>
<circle cx="375" cy="439" r="1" fill="#D9D9D9"/>
<circle cx="425" cy="439" r="1" fill="#D9D9D9"/>
<circle cx="475" cy="439" r="1" fill="#D9D9D9"/>
<circle cx="525" cy="439" r="1" fill="#D9D9D9"/>
<circle cx="575" cy="439" r="1" fill="#D9D9D9"/>
<circle cx="625" cy="439" r="1" fill="#D9D9D9"/>
<circle cx="675" cy="439" r="1" fill="#D9D9D9"/>
<circle cx="725" cy="439" r="1" fill="#D9D9D9"/>
<circle cx="775" cy="439" r="1" fill="#D9D9D9"/>
<circle cx="825" cy="439" r="1" fill="#D9D9D9"/>
<circle cx="875" cy="439" r="1" fill="#D9D9D9"/>
<circle cx="925" cy="439" r="1" fill="#D9D9D9"/>
<circle cx="975" cy="439" r="1" fill="#D9D9D9"/>
<circle cx="1025" cy="439" r="1" fill="#D9D9D9"/>
<circle cx="1075" cy="439" r="1" fill="#D9D9D9"/>
<circle cx="1125" cy="439" r="1" fill="#D9D9D9"/>
<circle cx="1175" cy="439" r="1" fill="#D9D9D9"/>
<circle cx="1225" cy="439" r="1" fill="#D9D9D9"/>
<circle cx="1275" cy="439" r="1" fill="#D9D9D9"/>
<circle cx="1325" cy="439" r="1" fill="#D9D9D9"/>
<circle cx="1375" cy="439" r="1" fill="#D9D9D9"/>
<circle cx="25" cy="489" r="1" fill="#D9D9D9"/>
<circle cx="75" cy="489" r="1" fill="#D9D9D9"/>
<circle cx="125" cy="489" r="1" fill="#D9D9D9"/>
<circle cx="175" cy="489" r="1" fill="#D9D9D9"/>
<circle cx="225" cy="489" r="1" fill="#D9D9D9"/>
<circle cx="275" cy="489" r="1" fill="#D9D9D9"/>
<circle cx="325" cy="489" r="1" fill="#D9D9D9"/>
<circle cx="375" cy="489" r="1" fill="#D9D9D9"/>
<circle cx="425" cy="489" r="1" fill="#D9D9D9"/>
<circle cx="475" cy="489" r="1" fill="#D9D9D9"/>
<circle cx="525" cy="489" r="1" fill="#D9D9D9"/>
<circle cx="575" cy="489" r="1" fill="#D9D9D9"/>
<circle cx="625" cy="489" r="1" fill="#D9D9D9"/>
<circle cx="675" cy="489" r="1" fill="#D9D9D9"/>
<circle cx="725" cy="489" r="1" fill="#D9D9D9"/>
<circle cx="775" cy="489" r="1" fill="#D9D9D9"/>
<circle cx="825" cy="489" r="1" fill="#D9D9D9"/>
<circle cx="875" cy="489" r="1" fill="#D9D9D9"/>
<circle cx="925" cy="489" r="1" fill="#D9D9D9"/>
<circle cx="975" cy="489" r="1" fill="#D9D9D9"/>
<circle cx="1025" cy="489" r="1" fill="#D9D9D9"/>
<circle cx="1075" cy="489" r="1" fill="#D9D9D9"/>
<circle cx="1125" cy="489" r="1" fill="#D9D9D9"/>
<circle cx="1175" cy="489" r="1" fill="#D9D9D9"/>
<circle cx="1225" cy="489" r="1" fill="#D9D9D9"/>
<circle cx="1275" cy="489" r="1" fill="#D9D9D9"/>
<circle cx="1325" cy="489" r="1" fill="#D9D9D9"/>
<circle cx="1375" cy="489" r="1" fill="#D9D9D9"/>
<circle cx="25" cy="539" r="1" fill="#D9D9D9"/>
<circle cx="75" cy="539" r="1" fill="#D9D9D9"/>
<circle cx="125" cy="539" r="1" fill="#D9D9D9"/>
<circle cx="175" cy="539" r="1" fill="#D9D9D9"/>
<circle cx="225" cy="539" r="1" fill="#D9D9D9"/>
<circle cx="275" cy="539" r="1" fill="#D9D9D9"/>
<circle cx="325" cy="539" r="1" fill="#D9D9D9"/>
<circle cx="375" cy="539" r="1" fill="#D9D9D9"/>
<circle cx="425" cy="539" r="1" fill="#D9D9D9"/>
<circle cx="475" cy="539" r="1" fill="#D9D9D9"/>
<circle cx="525" cy="539" r="1" fill="#D9D9D9"/>
<circle cx="575" cy="539" r="1" fill="#D9D9D9"/>
<circle cx="625" cy="539" r="1" fill="#D9D9D9"/>
<circle cx="675" cy="539" r="1" fill="#D9D9D9"/>
<circle cx="725" cy="539" r="1" fill="#D9D9D9"/>
<circle cx="775" cy="539" r="1" fill="#D9D9D9"/>
<circle cx="825" cy="539" r="1" fill="#D9D9D9"/>
<circle cx="875" cy="539" r="1" fill="#D9D9D9"/>
<circle cx="925" cy="539" r="1" fill="#D9D9D9"/>
<circle cx="975" cy="539" r="1" fill="#D9D9D9"/>
<circle cx="1025" cy="539" r="1" fill="#D9D9D9"/>
<circle cx="1075" cy="539" r="1" fill="#D9D9D9"/>
<circle cx="1125" cy="539" r="1" fill="#D9D9D9"/>
<circle cx="1175" cy="539" r="1" fill="#D9D9D9"/>
<circle cx="1225" cy="539" r="1" fill="#D9D9D9"/>
<circle cx="1275" cy="539" r="1" fill="#D9D9D9"/>
<circle cx="1325" cy="539" r="1" fill="#D9D9D9"/>
<circle cx="1375" cy="539" r="1" fill="#D9D9D9"/>
<circle cx="25" cy="589" r="1" fill="#D9D9D9"/>
<circle cx="75" cy="589" r="1" fill="#D9D9D9"/>
<circle cx="125" cy="589" r="1" fill="#D9D9D9"/>
<circle cx="175" cy="589" r="1" fill="#D9D9D9"/>
<circle cx="225" cy="589" r="1" fill="#D9D9D9"/>
<circle cx="275" cy="589" r="1" fill="#D9D9D9"/>
<circle cx="325" cy="589" r="1" fill="#D9D9D9"/>
<circle cx="375" cy="589" r="1" fill="#D9D9D9"/>
<circle cx="425" cy="589" r="1" fill="#D9D9D9"/>
<circle cx="475" cy="589" r="1" fill="#D9D9D9"/>
<circle cx="525" cy="589" r="1" fill="#D9D9D9"/>
<circle cx="575" cy="589" r="1" fill="#D9D9D9"/>
<circle cx="625" cy="589" r="1" fill="#D9D9D9"/>
<circle cx="675" cy="589" r="1" fill="#D9D9D9"/>
<circle cx="725" cy="589" r="1" fill="#D9D9D9"/>
<circle cx="775" cy="589" r="1" fill="#D9D9D9"/>
<circle cx="825" cy="589" r="1" fill="#D9D9D9"/>
<circle cx="875" cy="589" r="1" fill="#D9D9D9"/>
<circle cx="925" cy="589" r="1" fill="#D9D9D9"/>
<circle cx="975" cy="589" r="1" fill="#D9D9D9"/>
<circle cx="1025" cy="589" r="1" fill="#D9D9D9"/>
<circle cx="1075" cy="589" r="1" fill="#D9D9D9"/>
<circle cx="1125" cy="589" r="1" fill="#D9D9D9"/>
<circle cx="1175" cy="589" r="1" fill="#D9D9D9"/>
<circle cx="1225" cy="589" r="1" fill="#D9D9D9"/>
<circle cx="1275" cy="589" r="1" fill="#D9D9D9"/>
<circle cx="1325" cy="589" r="1" fill="#D9D9D9"/>
<circle cx="1375" cy="589" r="1" fill="#D9D9D9"/>
<circle cx="25" cy="639" r="1" fill="#D9D9D9"/>
<circle cx="75" cy="639" r="1" fill="#D9D9D9"/>
<circle cx="125" cy="639" r="1" fill="#D9D9D9"/>
<circle cx="175" cy="639" r="1" fill="#D9D9D9"/>
<circle cx="225" cy="639" r="1" fill="#D9D9D9"/>
<circle cx="275" cy="639" r="1" fill="#D9D9D9"/>
<circle cx="325" cy="639" r="1" fill="#D9D9D9"/>
<circle cx="375" cy="639" r="1" fill="#D9D9D9"/>
<circle cx="425" cy="639" r="1" fill="#D9D9D9"/>
<circle cx="475" cy="639" r="1" fill="#D9D9D9"/>
<circle cx="525" cy="639" r="1" fill="#D9D9D9"/>
<circle cx="575" cy="639" r="1" fill="#D9D9D9"/>
<circle cx="625" cy="639" r="1" fill="#D9D9D9"/>
<circle cx="675" cy="639" r="1" fill="#D9D9D9"/>
<circle cx="725" cy="639" r="1" fill="#D9D9D9"/>
<circle cx="775" cy="639" r="1" fill="#D9D9D9"/>
<circle cx="825" cy="639" r="1" fill="#D9D9D9"/>
<circle cx="875" cy="639" r="1" fill="#D9D9D9"/>
<circle cx="925" cy="639" r="1" fill="#D9D9D9"/>
<circle cx="975" cy="639" r="1" fill="#D9D9D9"/>
<circle cx="1025" cy="639" r="1" fill="#D9D9D9"/>
<circle cx="1075" cy="639" r="1" fill="#D9D9D9"/>
<circle cx="1125" cy="639" r="1" fill="#D9D9D9"/>
<circle cx="1175" cy="639" r="1" fill="#D9D9D9"/>
<circle cx="1225" cy="639" r="1" fill="#D9D9D9"/>
<circle cx="1275" cy="639" r="1" fill="#D9D9D9"/>
<circle cx="1325" cy="639" r="1" fill="#D9D9D9"/>
<circle cx="1375" cy="639" r="1" fill="#D9D9D9"/>
<circle cx="25" cy="689" r="1" fill="#D9D9D9"/>
<circle cx="75" cy="689" r="1" fill="#D9D9D9"/>
<circle cx="125" cy="689" r="1" fill="#D9D9D9"/>
<circle cx="175" cy="689" r="1" fill="#D9D9D9"/>
<circle cx="225" cy="689" r="1" fill="#D9D9D9"/>
<circle cx="275" cy="689" r="1" fill="#D9D9D9"/>
<circle cx="325" cy="689" r="1" fill="#D9D9D9"/>
<circle cx="375" cy="689" r="1" fill="#D9D9D9"/>
<circle cx="425" cy="689" r="1" fill="#D9D9D9"/>
<circle cx="475" cy="689" r="1" fill="#D9D9D9"/>
<circle cx="525" cy="689" r="1" fill="#D9D9D9"/>
<circle cx="575" cy="689" r="1" fill="#D9D9D9"/>
<circle cx="625" cy="689" r="1" fill="#D9D9D9"/>
<circle cx="675" cy="689" r="1" fill="#D9D9D9"/>
<circle cx="725" cy="689" r="1" fill="#D9D9D9"/>
<circle cx="775" cy="689" r="1" fill="#D9D9D9"/>
<circle cx="825" cy="689" r="1" fill="#D9D9D9"/>
<circle cx="875" cy="689" r="1" fill="#D9D9D9"/>
<circle cx="925" cy="689" r="1" fill="#D9D9D9"/>
<circle cx="975" cy="689" r="1" fill="#D9D9D9"/>
<circle cx="1025" cy="689" r="1" fill="#D9D9D9"/>
<circle cx="1075" cy="689" r="1" fill="#D9D9D9"/>
<circle cx="1125" cy="689" r="1" fill="#D9D9D9"/>
<circle cx="1175" cy="689" r="1" fill="#D9D9D9"/>
<circle cx="1225" cy="689" r="1" fill="#D9D9D9"/>
<circle cx="1275" cy="689" r="1" fill="#D9D9D9"/>
<circle cx="1325" cy="689" r="1" fill="#D9D9D9"/>
<circle cx="1375" cy="689" r="1" fill="#D9D9D9"/>
<circle cx="25" cy="739" r="1" fill="#D9D9D9"/>
<circle cx="75" cy="739" r="1" fill="#D9D9D9"/>
<circle cx="125" cy="739" r="1" fill="#D9D9D9"/>
<circle cx="175" cy="739" r="1" fill="#D9D9D9"/>
<circle cx="225" cy="739" r="1" fill="#D9D9D9"/>
<circle cx="275" cy="739" r="1" fill="#D9D9D9"/>
<circle cx="325" cy="739" r="1" fill="#D9D9D9"/>
<circle cx="375" cy="739" r="1" fill="#D9D9D9"/>
<circle cx="425" cy="739" r="1" fill="#D9D9D9"/>
<circle cx="475" cy="739" r="1" fill="#D9D9D9"/>
<circle cx="525" cy="739" r="1" fill="#D9D9D9"/>
<circle cx="575" cy="739" r="1" fill="#D9D9D9"/>
<circle cx="625" cy="739" r="1" fill="#D9D9D9"/>
<circle cx="675" cy="739" r="1" fill="#D9D9D9"/>
<circle cx="725" cy="739" r="1" fill="#D9D9D9"/>
<circle cx="775" cy="739" r="1" fill="#D9D9D9"/>
<circle cx="825" cy="739" r="1" fill="#D9D9D9"/>
<circle cx="875" cy="739" r="1" fill="#D9D9D9"/>
<circle cx="925" cy="739" r="1" fill="#D9D9D9"/>
<circle cx="975" cy="739" r="1" fill="#D9D9D9"/>
<circle cx="1025" cy="739" r="1" fill="#D9D9D9"/>
<circle cx="1075" cy="739" r="1" fill="#D9D9D9"/>
<circle cx="1125" cy="739" r="1" fill="#D9D9D9"/>
<circle cx="1175" cy="739" r="1" fill="#D9D9D9"/>
<circle cx="1225" cy="739" r="1" fill="#D9D9D9"/>
<circle cx="1275" cy="739" r="1" fill="#D9D9D9"/>
<circle cx="1325" cy="739" r="1" fill="#D9D9D9"/>
<circle cx="1375" cy="739" r="1" fill="#D9D9D9"/>
</svg>
