<svg width="143" height="45" viewBox="0 0 143 45" fill="none" xmlns="http://www.w3.org/2000/svg">
<g clip-path="url(#clip0_2004_40)">
<path d="M61.9378 31.4689V40.4759C61.9378 41.6435 61.771 41.7547 60.659 41.7547H57.2675C56.4335 41.7547 56.2111 41.5323 56.2111 40.6983C56.2111 37.974 56.2111 35.194 56.2111 32.4697C56.2111 32.2473 56.1555 31.9693 56.0443 31.7469C55.8219 31.8581 55.5995 32.0249 55.4328 32.2473C53.9872 34.5268 52.5416 36.8064 51.1516 39.1415C50.5957 40.0311 50.1509 40.0311 49.6505 39.1415L45.425 32.3585C45.3694 32.2473 45.3138 32.1361 45.2026 32.0249C45.0914 31.9137 44.9246 31.8581 44.8134 31.8025C44.7578 31.9137 44.7022 32.0805 44.6466 32.1917C44.6466 33.5261 44.6466 34.8604 44.6466 36.1948C44.6466 37.696 44.6466 39.1971 44.6466 40.6983C44.6466 41.5879 44.4242 41.8103 43.5902 41.8103H39.9763C39.1423 41.8103 38.9199 41.5879 38.9199 40.8095C38.9199 37.9184 38.9199 34.9716 38.9199 32.0805V22.3507C38.9199 21.2387 39.0311 21.1275 40.1431 21.1275C41.2551 21.1275 42.2558 21.1275 43.3678 21.1275C43.9794 21.0719 44.5354 21.4055 44.869 21.9615C46.5369 24.4079 48.1493 26.7986 49.8173 29.1894C49.8729 29.3006 49.9841 29.4118 50.0953 29.5786C50.4289 29.9677 50.5957 29.9677 50.9293 29.4674C51.8744 28.0774 52.8752 26.6318 53.8204 25.2418C54.5988 24.1299 55.3772 23.0179 56.0999 21.9059C56.3779 21.4055 56.9339 21.1275 57.5455 21.1831C58.7131 21.1831 59.8807 21.1831 61.0482 21.1831C61.8266 21.1831 62.049 21.4055 62.049 22.2395C62.049 24.6303 62.049 27.021 62.049 29.4674L61.9378 31.4689Z" fill="#111827"/>
<path d="M102.412 30.8017C102.69 30.9685 102.857 31.0797 103.024 31.2465C104.47 32.0805 105.359 33.6372 105.359 35.3052C105.47 38.8635 103.691 41.2542 99.9661 41.6434C98.0201 41.8658 96.0742 41.7546 94.1282 41.8102C92.5715 41.8102 91.0703 41.8102 89.5135 41.8102C88.7908 41.8102 88.5684 41.5878 88.5684 40.8651V22.0171C88.5684 21.2943 88.7907 21.0719 89.4579 21.0719C92.6271 21.0719 95.8518 21.0719 99.0209 21.1831C101.022 21.2387 102.802 21.9615 103.914 23.7406C105.026 25.5198 105.304 28.4109 102.968 30.3569C102.802 30.4681 102.635 30.5793 102.412 30.8017ZM96.4078 33.6928H95.0178C94.4062 33.6928 94.2394 33.8596 94.2394 34.5268C94.2394 34.916 94.2394 35.3052 94.2394 35.6944C94.2394 36.306 94.4062 36.5284 95.0178 36.5284C95.963 36.5284 96.9082 36.5284 97.8533 36.5284C98.6317 36.584 99.2989 35.9724 99.4101 35.194C99.3545 34.36 98.6317 33.7484 97.8533 33.7484L96.4078 33.6928ZM96.1854 28.9113C96.6302 28.9113 97.0194 28.9113 97.4086 28.9113C98.1313 28.9113 98.6873 28.3553 98.6873 27.6881C98.6873 26.9654 98.1313 26.4094 97.4642 26.4094C96.6302 26.4094 95.7962 26.4094 94.9622 26.4094C94.6286 26.3538 94.295 26.6318 94.295 26.9654C94.295 27.021 94.295 27.0766 94.295 27.1322C94.295 27.5214 94.295 27.8549 94.295 28.2441C94.2394 28.5777 94.5174 28.9113 94.851 28.9669C94.9066 28.9669 94.9622 28.9669 94.9622 28.9669C95.3514 28.9113 95.7962 28.9113 96.1854 28.9113Z" fill="#111827"/>
<path d="M0 31.4133V22.3507C0 21.2387 0.111198 21.1275 1.27877 21.1275H9.67418C12.7877 21.0163 15.5677 22.9623 16.5128 25.909C17.5692 28.9669 16.624 32.3585 14.1221 34.36C13.5661 34.8048 13.5661 34.9716 13.9553 35.5832C15.2341 37.2512 16.5684 38.9191 17.8472 40.5871C17.9028 40.6983 18.014 40.8095 18.0696 40.9207C18.3476 41.3655 18.1808 41.7547 17.6804 41.7547C15.9568 41.7547 14.2333 41.8103 12.5653 41.6991C12.0649 41.6435 11.6757 41.3655 11.3421 41.0319C10.2302 39.6419 9.17379 38.1407 8.17302 36.6952C7.72823 36.028 6.94984 35.75 6.17146 35.9168C5.72667 35.9724 5.61547 36.306 5.61547 36.6952C5.61547 38.0295 5.61547 39.4195 5.61547 40.7539C5.61547 41.5879 5.39308 41.7547 4.5591 41.7547H1.00078C0.277994 41.7547 0 41.5323 0 40.8095V31.4133ZM7.89502 26.3538H6.39386C6.00467 26.2982 5.67107 26.5762 5.61547 26.9098C5.61547 26.9654 5.61547 27.021 5.61547 27.0766C5.61547 28.0218 5.61547 28.9669 5.61547 29.9677C5.55988 30.3013 5.83787 30.6349 6.17146 30.6349C6.22706 30.6349 6.22706 30.6349 6.28266 30.6349C7.33904 30.6349 8.45101 30.6905 9.50739 30.6349C10.6194 30.5237 11.3977 29.5785 11.2865 28.4666V28.411C11.2865 27.299 10.397 26.3538 9.28499 26.3538C8.7846 26.3538 8.33981 26.3538 7.89502 26.3538Z" fill="#111827"/>
<path d="M64.3281 31.4133C64.3281 25.4642 69.1096 20.6827 75.0587 20.6827C81.0078 20.6827 85.7892 25.4642 85.7892 31.4133C85.7892 37.3624 81.0078 42.1439 75.0587 42.1439H75.0031C69.1096 42.1439 64.3281 37.3624 64.3281 31.4133ZM80.0626 31.4133C80.0626 28.6334 77.8386 26.4094 75.1143 26.3538C72.3344 26.3538 70.1104 28.5778 70.0548 31.3021C70.0548 34.1932 72.2787 36.584 75.0031 36.584C77.8386 36.584 80.0626 34.2488 80.0626 31.4133Z" fill="#111827"/>
<path d="M20.2383 31.4133V22.1283C20.2383 21.2387 20.4051 21.1275 21.2391 21.1275H34.8608C35.7503 21.1275 35.9171 21.2943 35.9171 22.1839C35.9171 23.2403 35.9171 24.2966 35.9171 25.353C35.9171 26.1314 35.6947 26.3538 34.9164 26.3538C32.2476 26.3538 29.5233 26.3538 26.8545 26.3538C25.965 26.3538 25.8538 26.5206 25.8538 27.3546C25.8538 28.8001 25.8538 28.8557 27.2993 28.8557H33.8044C34.6384 28.8557 34.8052 29.0225 34.8052 29.8565V33.1924C34.8052 33.9708 34.5828 34.1376 33.8044 34.1376H26.8545C26.0206 34.1376 25.8538 34.3044 25.8538 35.1384C25.8538 35.2496 25.8538 35.3052 25.8538 35.4164C25.8538 36.4172 25.965 36.5284 26.9657 36.5284H34.7496C35.8615 36.5284 35.9727 36.6396 35.9727 37.7515C35.9727 38.8635 35.9727 39.8643 35.9727 40.9207C35.9727 41.5878 35.7503 41.8102 35.0275 41.8102H21.1279C20.4607 41.8102 20.2383 41.5878 20.2383 40.8651V31.4133Z" fill="#111827"/>
<path d="M131.491 2.33514H141.221C142.556 2.33514 143 2.72433 143 4.0587C143 10.5638 143 17.1244 143 23.6295C143 25.0194 142.611 25.353 141.277 25.353H139.108C137.663 25.353 137.329 25.0194 137.329 23.6295V9.72977C137.329 8.451 136.996 8.06181 135.717 8.06181H121.65C120.372 8.06181 119.982 7.67262 119.982 6.44944C119.982 5.61546 119.982 4.72588 119.982 3.8363C119.982 2.83552 120.427 2.39073 121.484 2.33514C122.54 2.27954 123.708 2.33514 124.82 2.33514H131.491Z" fill="#F59E0B"/>
<path d="M122.65 11.1198H132.603C133.715 11.1198 134.159 11.5645 134.159 12.6765V32.5253C134.159 33.7484 133.715 34.1376 132.547 34.1932C131.713 34.1932 130.879 34.1932 129.989 34.1932C128.933 34.1932 128.433 33.7484 128.433 32.6365V18.5144C128.433 17.18 128.043 16.7908 126.709 16.7908H112.643C111.475 16.7908 111.086 16.4016 111.086 15.2341C111.086 14.3445 111.086 13.4549 111.086 12.5097C110.975 11.8425 111.475 11.2309 112.142 11.1198C112.253 11.1198 112.365 11.1198 112.476 11.1198H122.65Z" fill="#F59E0B"/>
<path d="M111.92 37.696C111.92 36.6952 111.976 35.75 111.92 34.7492C111.92 34.1932 111.754 33.6929 111.476 33.1925C109.363 29.6897 107.194 26.187 105.082 22.6843C104.971 22.5731 104.915 22.4063 104.859 22.2951C104.748 21.9615 104.637 21.6279 104.693 21.2943C104.693 21.1831 105.249 21.0719 105.527 21.0719C106.972 21.0719 108.418 21.0719 109.863 21.0719C110.419 21.0163 110.975 21.3499 111.198 21.8503C112.254 23.6851 113.255 25.5198 114.311 27.299C114.7 28.0218 114.867 28.0218 115.256 27.299C116.313 25.4642 117.313 23.6851 118.314 21.8503C118.592 21.2943 119.148 20.9607 119.76 21.0163C121.261 21.0719 122.818 21.0163 124.319 21.0163C125.153 21.0163 125.32 21.2943 124.875 22.0171C122.762 25.4642 120.705 28.8558 118.537 32.2473C117.869 33.2481 117.536 34.4712 117.536 35.6944C117.591 37.3068 117.536 38.9191 117.536 40.5315C117.536 41.4767 117.313 41.6991 116.368 41.6991C115.145 41.6991 113.922 41.6991 112.699 41.6991C112.032 41.6991 111.809 41.4211 111.754 40.7539C111.92 39.8087 111.92 38.7523 111.92 37.696Z" fill="#111827"/>
</g>
<defs>
<clipPath id="clip0_2004_40">
<rect width="143" height="39.8087" fill="white" transform="translate(0 2.33514)"/>
</clipPath>
</defs>
</svg>
