<svg width="143" height="45" viewBox="0 0 143 45" fill="none" xmlns="http://www.w3.org/2000/svg">
<g clip-path="url(#clip0_2004_3516)">
<path d="M61.9378 31.4685V40.4755C61.9378 41.6431 61.771 41.7543 60.659 41.7543H57.2675C56.4335 41.7543 56.2111 41.5319 56.2111 40.6979C56.2111 37.9735 56.2111 35.1936 56.2111 32.4693C56.2111 32.2469 56.1555 31.9689 56.0443 31.7465C55.8219 31.8577 55.5995 32.0245 55.4328 32.2469C53.9872 34.5264 52.5416 36.806 51.1516 39.1411C50.5957 40.0307 50.1509 40.0307 49.6505 39.1411L45.425 32.3581C45.3694 32.2469 45.3138 32.1357 45.2026 32.0245C45.0914 31.9133 44.9246 31.8577 44.8134 31.8021C44.7578 31.9133 44.7022 32.0801 44.6466 32.1913C44.6466 33.5256 44.6466 34.86 44.6466 36.1944C44.6466 37.6955 44.6466 39.1967 44.6466 40.6979C44.6466 41.5875 44.4242 41.8098 43.5902 41.8098H39.9763C39.1423 41.8098 38.9199 41.5875 38.9199 40.8091C38.9199 37.9179 38.9199 34.9712 38.9199 32.0801V22.3503C38.9199 21.2383 39.0311 21.1271 40.1431 21.1271C41.2551 21.1271 42.2558 21.1271 43.3678 21.1271C43.9794 21.0715 44.5354 21.4051 44.869 21.9611C46.5369 24.4074 48.1493 26.7982 49.8173 29.1889C49.8729 29.3001 49.9841 29.4113 50.0953 29.5781C50.4289 29.9673 50.5957 29.9673 50.9293 29.4669C51.8744 28.077 52.8752 26.6314 53.8204 25.2414C54.5988 24.1294 55.3772 23.0175 56.0999 21.9055C56.3779 21.4051 56.9339 21.1271 57.5455 21.1827C58.7131 21.1827 59.8807 21.1827 61.0482 21.1827C61.8266 21.1827 62.049 21.4051 62.049 22.2391C62.049 24.6298 62.049 27.0206 62.049 29.4669L61.9378 31.4685Z" fill="white"/>
<path d="M102.412 30.8016C102.69 30.9684 102.857 31.0796 103.024 31.2463C104.47 32.0803 105.359 33.6371 105.359 35.3051C105.47 38.8634 103.691 41.2541 99.9661 41.6433C98.0201 41.8657 96.0742 41.7545 94.1282 41.8101C92.5715 41.8101 91.0703 41.8101 89.5135 41.8101C88.7908 41.8101 88.5684 41.5877 88.5684 40.8649V22.017C88.5684 21.2942 88.7907 21.0718 89.4579 21.0718C92.6271 21.0718 95.8518 21.0718 99.0209 21.183C101.022 21.2386 102.802 21.9614 103.914 23.7405C105.026 25.5197 105.304 28.4108 102.968 30.3568C102.802 30.468 102.635 30.5792 102.412 30.8016ZM96.4078 33.6927H95.0178C94.4062 33.6927 94.2394 33.8595 94.2394 34.5267C94.2394 34.9159 94.2394 35.3051 94.2394 35.6942C94.2394 36.3058 94.4062 36.5282 95.0178 36.5282C95.963 36.5282 96.9082 36.5282 97.8533 36.5282C98.6317 36.5838 99.2989 35.9722 99.4101 35.1939C99.3545 34.3599 98.6317 33.7483 97.8533 33.7483L96.4078 33.6927ZM96.1854 28.9112C96.6302 28.9112 97.0194 28.9112 97.4086 28.9112C98.1313 28.9112 98.6873 28.3552 98.6873 27.688C98.6873 26.9652 98.1313 26.4093 97.4642 26.4093C96.6302 26.4093 95.7962 26.4093 94.9622 26.4093C94.6286 26.3537 94.295 26.6317 94.295 26.9652C94.295 27.0208 94.295 27.0764 94.295 27.132C94.295 27.5212 94.295 27.8548 94.295 28.244C94.2394 28.5776 94.5174 28.9112 94.851 28.9668C94.9066 28.9668 94.9622 28.9668 94.9622 28.9668C95.3514 28.9112 95.7962 28.9112 96.1854 28.9112Z" fill="white"/>
<path d="M0 31.4133V22.3507C0 21.2388 0.111198 21.1276 1.27877 21.1276H9.67418C12.7877 21.0164 15.5677 22.9623 16.5128 25.9091C17.5692 28.967 16.624 32.3585 14.1221 34.3601C13.5661 34.8049 13.5661 34.9717 13.9553 35.5833C15.2341 37.2512 16.5684 38.9192 17.8472 40.5871C17.9028 40.6983 18.014 40.8095 18.0696 40.9207C18.3476 41.3655 18.1808 41.7547 17.6804 41.7547C15.9568 41.7547 14.2333 41.8103 12.5653 41.6991C12.0649 41.6435 11.6757 41.3655 11.3421 41.0319C10.2302 39.642 9.17379 38.1408 8.17302 36.6952C7.72823 36.028 6.94984 35.75 6.17146 35.9168C5.72667 35.9724 5.61547 36.306 5.61547 36.6952C5.61547 38.0296 5.61547 39.4196 5.61547 40.7539C5.61547 41.5879 5.39308 41.7547 4.5591 41.7547H1.00078C0.277994 41.7547 0 41.5323 0 40.8095V31.4133ZM7.89502 26.3539H6.39386C6.00467 26.2983 5.67107 26.5763 5.61547 26.9098C5.61547 26.9654 5.61547 27.021 5.61547 27.0766C5.61547 28.0218 5.61547 28.967 5.61547 29.9678C5.55988 30.3014 5.83787 30.635 6.17146 30.635C6.22706 30.635 6.22706 30.635 6.28266 30.635C7.33904 30.635 8.45101 30.6906 9.50739 30.635C10.6194 30.5238 11.3977 29.5786 11.2865 28.4666V28.411C11.2865 27.299 10.397 26.3539 9.28499 26.3539C8.7846 26.3539 8.33981 26.3539 7.89502 26.3539Z" fill="white"/>
<path d="M64.3281 31.4132C64.3281 25.4641 69.1096 20.6826 75.0587 20.6826C81.0078 20.6826 85.7892 25.4641 85.7892 31.4132C85.7892 37.3622 81.0078 42.1437 75.0587 42.1437H75.0031C69.1096 42.1437 64.3281 37.3622 64.3281 31.4132ZM80.0626 31.4132C80.0626 28.6332 77.8386 26.4093 75.1143 26.3537C72.3344 26.3537 70.1104 28.5776 70.0548 31.302C70.0548 34.1931 72.2787 36.5839 75.0031 36.5839C77.8386 36.5839 80.0626 34.2487 80.0626 31.4132Z" fill="white"/>
<path d="M20.2383 31.4132V22.1282C20.2383 21.2386 20.4051 21.1274 21.2391 21.1274H34.8608C35.7503 21.1274 35.9171 21.2942 35.9171 22.1838C35.9171 23.2402 35.9171 24.2966 35.9171 25.3529C35.9171 26.1313 35.6947 26.3537 34.9164 26.3537C32.2476 26.3537 29.5233 26.3537 26.8545 26.3537C25.965 26.3537 25.8538 26.5205 25.8538 27.3545C25.8538 28.8001 25.8538 28.8557 27.2993 28.8557H33.8044C34.6384 28.8557 34.8052 29.0225 34.8052 29.8564V33.1924C34.8052 33.9708 34.5828 34.1376 33.8044 34.1376H26.8545C26.0206 34.1376 25.8538 34.3043 25.8538 35.1383C25.8538 35.2495 25.8538 35.3051 25.8538 35.4163C25.8538 36.4171 25.965 36.5283 26.9657 36.5283H34.7496C35.8615 36.5283 35.9727 36.6395 35.9727 37.7515C35.9727 38.8634 35.9727 39.8642 35.9727 40.9206C35.9727 41.5878 35.7503 41.8102 35.0275 41.8102H21.1279C20.4607 41.8102 20.2383 41.5878 20.2383 40.865V31.4132Z" fill="white"/>
<path d="M131.491 2.33477H141.221C142.556 2.33477 143 2.72396 143 4.05833C143 10.5634 143 17.124 143 23.6291C143 25.0191 142.611 25.3527 141.277 25.3527H139.108C137.663 25.3527 137.329 25.0191 137.329 23.6291V9.7294C137.329 8.45063 136.996 8.06144 135.717 8.06144H121.65C120.372 8.06144 119.982 7.67225 119.982 6.44908C119.982 5.6151 119.982 4.72552 119.982 3.83594C119.982 2.83516 120.427 2.39037 121.484 2.33477C122.54 2.27917 123.708 2.33477 124.82 2.33477H131.491Z" fill="#F59E0B"/>
<path d="M122.65 11.1196H132.603C133.715 11.1196 134.159 11.5644 134.159 12.6764V32.5251C134.159 33.7483 133.715 34.1375 132.547 34.1931C131.713 34.1931 130.879 34.1931 129.989 34.1931C128.933 34.1931 128.433 33.7483 128.433 32.6363V18.5143C128.433 17.1799 128.043 16.7907 126.709 16.7907H112.643C111.475 16.7907 111.086 16.4015 111.086 15.2339C111.086 14.3444 111.086 13.4548 111.086 12.5096C110.975 11.8424 111.475 11.2308 112.142 11.1196C112.253 11.1196 112.365 11.1196 112.476 11.1196H122.65Z" fill="#F59E0B"/>
<path d="M111.92 37.6959C111.92 36.6951 111.976 35.7499 111.92 34.7492C111.92 34.1932 111.754 33.6928 111.476 33.1924C109.363 29.6897 107.194 26.187 105.082 22.6842C104.971 22.573 104.915 22.4062 104.859 22.295C104.748 21.9615 104.637 21.6279 104.693 21.2943C104.693 21.1831 105.249 21.0719 105.527 21.0719C106.972 21.0719 108.418 21.0719 109.863 21.0719C110.419 21.0163 110.975 21.3499 111.198 21.8503C112.254 23.685 113.255 25.5198 114.311 27.2989C114.7 28.0217 114.867 28.0217 115.256 27.2989C116.313 25.4642 117.313 23.685 118.314 21.8503C118.592 21.2943 119.148 20.9607 119.76 21.0163C121.261 21.0719 122.818 21.0163 124.319 21.0163C125.153 21.0163 125.32 21.2943 124.875 22.0171C122.762 25.4642 120.705 28.8557 118.537 32.2472C117.869 33.248 117.536 34.4712 117.536 35.6943C117.591 37.3067 117.536 38.9191 117.536 40.5314C117.536 41.4766 117.313 41.699 116.368 41.699C115.145 41.699 113.922 41.699 112.699 41.699C112.032 41.699 111.809 41.421 111.754 40.7538C111.92 39.8087 111.92 38.7523 111.92 37.6959Z" fill="white"/>
</g>
<defs>
<clipPath id="clip0_2004_3516">
<rect width="143" height="39.8087" fill="white" transform="translate(0 2.33496)"/>
</clipPath>
</defs>
</svg>
