<svg width="32" height="32" viewBox="0 0 32 32" fill="none" xmlns="http://www.w3.org/2000/svg">
<rect width="32" height="32" rx="16" fill="#111827"/>
<path d="M8.21976 23.7777C8.68364 24.2423 9.23473 24.6106 9.84138 24.8615C10.448 25.1123 11.0983 25.2409 11.7548 25.2397C12.4114 25.2409 13.0618 25.1123 13.6686 24.8614C14.2754 24.6105 14.8267 24.2422 15.2908 23.7777L18.1188 20.9487L16.7048 19.5347L13.8768 22.3637C13.3132 22.9247 12.5504 23.2397 11.7553 23.2397C10.9601 23.2397 10.1973 22.9247 9.63376 22.3637C9.07227 21.8004 8.75697 21.0375 8.75697 20.2422C8.75697 19.4469 9.07227 18.684 9.63376 18.1207L12.4628 15.2927L11.0488 13.8787L8.21976 16.7067C7.28357 17.6452 6.75781 18.9166 6.75781 20.2422C6.75781 21.5678 7.28357 22.8393 8.21976 23.7777ZM23.7758 15.2927C24.7115 14.354 25.2369 13.0826 25.2369 11.7572C25.2369 10.4318 24.7115 9.16043 23.7758 8.22172C22.8373 7.28552 21.5658 6.75977 20.2403 6.75977C18.9147 6.75977 17.6432 7.28552 16.7048 8.22172L13.8768 11.0507L15.2908 12.4647L18.1188 9.63572C18.6823 9.07471 19.4451 8.75975 20.2403 8.75975C21.0354 8.75975 21.7982 9.07471 22.3618 9.63572C22.9233 10.199 23.2386 10.9619 23.2386 11.7572C23.2386 12.5526 22.9233 13.3154 22.3618 13.8787L19.5328 16.7067L20.9468 18.1207L23.7758 15.2927Z" fill="white"/>
<path d="M12.4618 20.9498L11.0468 19.5358L19.5338 11.0498L20.9478 12.4648L12.4618 20.9498Z" fill="white"/>
</svg>
